<?xml version="1.0" encoding="UTF-8"?>
<svg version="1.1" xmlns="http://www.w3.org/2000/svg" width="192" height="208">
<path d="M0 0 C1.00289063 0.26683594 2.00578125 0.53367188 3.0390625 0.80859375 C21.64193823 6.33055554 37.30340222 17.40346779 47.0625 34.3125 C52.94751301 45.19861102 55.66825101 55.63217105 56.578125 67.94140625 C56.80010211 70.72182435 57.23468459 72.79370856 58.04296875 75.52734375 C58.94225111 78.79045403 59.11352112 81.53263772 59.07373047 84.89941406 C59.01601714 95.69431566 62.92968888 102.35246907 69 111 C71.54462004 114.95829785 72.79766894 117.21398638 72 122 C69.14953786 126.18067781 66.48222354 127.33995324 61.6875 128.3125 C60.12790527 128.56066909 58.56601911 128.79626547 57 129 C57.16048828 130.33804688 57.16048828 130.33804688 57.32421875 131.703125 C57.44410156 132.87359375 57.56398437 134.0440625 57.6875 135.25 C57.87892578 136.99023438 57.87892578 136.99023438 58.07421875 138.765625 C57.98976472 142.44604265 57.25135761 143.24963014 55 146 C54.83949024 148.26359924 55.05812983 150.331605 55.28515625 152.5859375 C55 155 55 155 53 157.79296875 C50.58252099 161.66943412 50.6342821 164.54707103 50.9375 168.9375 C51.30081176 174.6366144 50.97296182 178.96265305 48 184 C43.28676311 187.04882943 39.14316469 187.3920845 33.6796875 187.30078125 C32.07681876 187.3084175 30.4739539 187.31690638 28.87109375 187.32617188 C26.36476569 187.32395563 23.85921153 187.31232729 21.35302734 187.28491211 C18.91945006 187.264216 16.48821645 187.28019491 14.0546875 187.30078125 C12.93270462 187.27302361 12.93270462 187.27302361 11.78805542 187.2447052 C9.38856052 187.21465781 9.38856052 187.21465781 6 188 C3.06327956 191.47655224 1.38986419 195.06971224 -0.1875 199.3125 C-1.9138756 203.9138756 -1.9138756 203.9138756 -3 205 C-4.51302814 205.09861701 -6.03063706 205.12798784 -7.546875 205.12939453 C-8.52247879 205.13248123 -9.49808258 205.13556793 -10.50325012 205.13874817 C-12.11039131 205.13581001 -12.11039131 205.13581001 -13.75 205.1328125 C-14.85925339 205.13435837 -15.96850677 205.13590424 -17.1113739 205.13749695 C-20.74095417 205.13997525 -24.37043007 205.1337137 -28 205.125 C-29.8357811 205.12117813 -29.8357811 205.12117813 -31.70864868 205.11727905 C-39.03343299 205.09927583 -46.35801631 205.06523713 -53.68267822 205.01959229 C-56.70300288 205.00175408 -59.7232972 204.98917257 -62.74365234 204.97802734 C-66.69816382 204.96027234 -70.65132113 204.9167636 -74.60522461 204.84539795 C-75.98695375 204.82356796 -77.36884 204.81002086 -78.75073242 204.80499268 C-80.6296565 204.79594276 -82.5083245 204.75255741 -84.38671875 204.70703125 C-85.40983154 204.6913208 -86.43294434 204.67561035 -87.48706055 204.65942383 C-90 204 -90 204 -91.88061523 201.68359375 C-93.47083731 197.87122274 -92.47344569 194.99128033 -91.375 191.1875 C-90.97882097 189.67134066 -90.5856625 188.15438928 -90.1953125 186.63671875 C-89.99325195 185.86763184 -89.79119141 185.09854492 -89.58300781 184.30615234 C-85.56459129 168.41085817 -83.77359355 154.61351084 -92.16796875 139.8671875 C-94.08411835 136.8683521 -96.17879716 134.11180517 -98.375 131.3125 C-112.11764354 113.42157114 -117.64041183 92.37678791 -116 70 C-113.00339307 47.79828727 -101.72019839 27.53751765 -83.875 13.8125 C-59.48518568 -2.94044721 -28.62206398 -8.16258862 0 0 Z " fill="#FD9800" transform="translate(116,3)"/>
<path d="M0 0 C10.05993814 0.11223055 16.99734077 1.09222498 24.5 8.1875 C27.83166396 11.64170792 27.93246049 14.402981 27.9375 19.125 C27.95683594 20.33027344 27.97617188 21.53554688 27.99609375 22.77734375 C27.41209273 26.79177597 26.40019181 28.39378376 23.5 31.1875 C21.39453125 32.15625 21.39453125 32.15625 19.3125 32.6875 C17.24587848 33.31111435 17.24587848 33.31111435 15.5 34.1875 C14.18758887 36.65665186 14.18758887 36.65665186 14.5 39.1875 C15.16 39.8475 15.82 40.5075 16.5 41.1875 C22.4411773 41.1875 25.53141178 39.95079271 29.95703125 36.05078125 C33.66523893 31.57276843 35.17547759 26.3392026 36.6875 20.8125 C37.20376953 18.94464844 37.20376953 18.94464844 37.73046875 17.0390625 C37.98441406 16.09804688 38.23835938 15.15703125 38.5 14.1875 C45.49526529 14.94172884 48.78922204 17.02492572 53.375 22.375 C54.5 24.1875 54.5 24.1875 54.5 26.1875 C55.16 26.1875 55.82 26.1875 56.5 26.1875 C60.2719077 34.10177061 62.04045589 40.84725292 59.5625 49.4375 C56.14946777 53.98820964 51.68874536 57.60907642 45.98046875 58.64453125 C43.5625 58.8125 43.5625 58.8125 41.34765625 58.7890625 C40.43306641 58.98628906 40.43306641 58.98628906 39.5 59.1875 C38.20072659 61.13906254 38.20072659 61.13906254 37.5 63.1875 C37.83 63.5175 38.16 63.8475 38.5 64.1875 C38.75 66.625 38.75 66.625 38.5 69.1875 C34.98746854 71.52918764 33.63530644 71.68373677 29.5 71.1875 C25.24348978 68.61379615 23.38217192 65.74433729 21.5 61.1875 C21.5 60.5275 21.5 59.8675 21.5 59.1875 C20.06589632 58.93795995 18.62739928 58.71357358 17.1875 58.5 C16.38699219 58.37238281 15.58648437 58.24476562 14.76171875 58.11328125 C12.45720539 57.98999362 12.45720539 57.98999362 10.71875 59.375 C9.15622746 61.69875147 9.1918599 63.10027775 9.3125 65.875 C9.33957031 66.68324219 9.36664063 67.49148437 9.39453125 68.32421875 C9.44673828 69.24654297 9.44673828 69.24654297 9.5 70.1875 C10.221875 70.414375 10.94375 70.64125 11.6875 70.875 C15.30132627 72.56145226 17.13311863 73.94149127 19.5 77.1875 C20.56964271 82.2362136 20.24536255 86.73130146 17.4375 91.125 C14.96681482 94.51075377 11.42397312 96.01093932 7.5 97.1875 C4.04452367 97.66871636 0.59273397 97.67034829 -2.890625 97.71484375 C-6.87974016 97.80207384 -6.87974016 97.80207384 -10.37890625 99.51953125 C-12.01618292 101.95547947 -13.26064185 104.53173253 -14.5 107.1875 C-15.16 107.1875 -15.82 107.1875 -16.5 107.1875 C-16.17 108.5075 -15.84 109.8275 -15.5 111.1875 C-11.54 111.5175 -7.58 111.8475 -3.5 112.1875 C-5.7350168 117.77504199 -5.7350168 117.77504199 -8.26953125 120.51953125 C-11.49617902 124.13811922 -14.3525391 127.94570454 -17.1875 131.875 C-18.56572782 133.77217854 -19.94422195 135.66913953 -21.32568359 137.56396484 C-22.30154985 138.91313545 -23.25697689 140.2770617 -24.20703125 141.64453125 C-24.84705078 142.40830078 -24.84705078 142.40830078 -25.5 143.1875 C-26.16 143.1875 -26.82 143.1875 -27.5 143.1875 C-27.5 144.1775 -27.5 145.1675 -27.5 146.1875 C-28.49 146.1875 -29.48 146.1875 -30.5 146.1875 C-29.93179252 140.73270815 -28.55362055 136.27690744 -26.5 131.1875 C-25.84 131.1875 -25.18 131.1875 -24.5 131.1875 C-24.5 128.8775 -24.5 126.5675 -24.5 124.1875 C-28.79 124.1875 -33.08 124.1875 -37.5 124.1875 C-38.65957207 120.70878379 -38.27456651 119.84530355 -37.0625 116.5 C-36.63130859 115.28763672 -36.63130859 115.28763672 -36.19140625 114.05078125 C-35.96324219 113.43589844 -35.73507813 112.82101563 -35.5 112.1875 C-34.84 112.1875 -34.18 112.1875 -33.5 112.1875 C-33.231875 111.0325 -32.96375 109.8775 -32.6875 108.6875 C-31.61614878 104.37126486 -30.12527763 100.32457033 -28.5 96.1875 C-29.31984375 96.47625 -30.1396875 96.765 -30.984375 97.0625 C-32.06203125 97.43375 -33.1396875 97.805 -34.25 98.1875 C-35.31734375 98.55875 -36.3846875 98.93 -37.484375 99.3125 C-40.5 100.1875 -40.5 100.1875 -44.5 100.1875 C-44.5 100.8475 -44.5 101.5075 -44.5 102.1875 C-53.33932121 105.1339404 -65.12478005 104.5123277 -73.4375 100.5 C-79.46639162 97.14290495 -83.53794968 92.12428518 -85.6875 85.5625 C-87.16525868 79.24420894 -86.35392351 73.00476262 -83.5 67.1875 C-81.51171875 65.01953125 -81.51171875 65.01953125 -79.1875 63 C-78.42824219 62.32582031 -77.66898438 61.65164062 -76.88671875 60.95703125 C-72.31244061 57.565627 -68.58596093 56.91131942 -62.9375 56.9375 C-61.82246094 56.93234375 -60.70742188 56.9271875 -59.55859375 56.921875 C-56.588088 57.17984996 -55.04337423 57.74381086 -52.5 59.1875 C-49.91583753 59.52124277 -49.91583753 59.52124277 -47.5 59.1875 C-45.18313634 57.31105493 -45.18313634 57.31105493 -45.3125 54.25 C-45.37049768 51.14656921 -45.37049768 51.14656921 -46.5 48.1875 C-51.35729645 47.21450844 -55.9500625 47.06711195 -60.875 47.125 C-61.61105469 47.12951172 -62.34710938 47.13402344 -63.10546875 47.13867188 C-64.90368158 47.15034858 -66.70185197 47.16827989 -68.5 47.1875 C-68.5 47.8475 -68.5 48.5075 -68.5 49.1875 C-76.761959 52.81620159 -76.761959 52.81620159 -81.5 51.1875 C-81.02360209 46.3282413 -80.2678762 43.19614829 -77.5 39.1875 C-77.11070313 38.51847656 -76.72140625 37.84945312 -76.3203125 37.16015625 C-72.56910054 30.96111953 -67.88294812 25.75844811 -61.5 22.1875 C-57.50203672 21.76038839 -56.11385556 21.74495297 -52.8125 24.125 C-50.28715621 27.46937421 -49.25547687 30.29603969 -48.17578125 34.296875 C-47.67386375 36.38878328 -47.67386375 36.38878328 -45.5 37.1875 C-41.44857881 37.44610135 -39.95662331 37.49191554 -36.5 35.1875 C-35.41083846 31.81399951 -35.41083846 31.81399951 -35.5 28.1875 C-37.41812898 25.5316291 -39.31986499 24.29472322 -42.125 22.625 C-44.5 21.1875 -44.5 21.1875 -46.5 18.1875 C-47 15.8125 -47 15.8125 -46.5 13.1875 C-40.93257503 7.86751614 -36.73455894 5.58698669 -29.1875 4.875 C-23.17772934 5.3843026 -18.54957467 7.62131046 -14.625 12.25 C-9.24107593 19.69248328 -8.81042743 26.11223238 -9.5 35.1875 C-11.03259323 39.47876104 -13.00090516 42.28756523 -16.5 45.1875 C-19.515625 45.796875 -19.515625 45.796875 -22.75 45.9375 C-24.36648437 46.02257813 -24.36648437 46.02257813 -26.015625 46.109375 C-26.83546875 46.13515625 -27.6553125 46.1609375 -28.5 46.1875 C-29.61658501 50.87715706 -29.30619523 53.72513531 -27.5 58.1875 C-19.87698834 58.05137479 -16.82613629 55.36912872 -11.5 50.1875 C-10.08676379 49.01668022 -8.67015241 47.84992105 -7.25 46.6875 C-0.66375314 40.77411137 0.75821462 36.30445275 1.25 27.75 C1.36243988 25.22852882 1.43941145 22.71101301 1.5 20.1875 C0.84 20.1875 0.18 20.1875 -0.5 20.1875 C-0.9125 18.95 -1.325 17.7125 -1.75 16.4375 C-2.8080258 13.54691276 -3.40022851 12.28157026 -5.6875 10.125 C-7.5 8.1875 -7.5 8.1875 -7.8125 4.5 C-7.28268043 -1.11608749 -5.17503515 0.02764442 0 0 Z " fill="#262421" transform="translate(95.5,7.8125)"/>
<path d="M0 0 C3.23108822 1.34196712 6.53031075 1.87130031 9.9609375 2.48828125 C13.87969946 3.22948316 16.38946808 3.96995288 19.00390625 7.03515625 C19.59171875 7.96328125 19.59171875 7.96328125 20.19140625 8.91015625 C18.82157122 12.07131401 18.20234245 12.90286545 15.19140625 14.91015625 C7.49334591 15.75724011 1.68809813 12.2440349 -4.79296875 8.56640625 C-12.81510999 4.16046339 -21.81290851 3.99882866 -30.80859375 4.91015625 C-34.20734274 6.320657 -36.34980341 7.42356044 -38.87109375 10.09765625 C-40.80859375 11.91015625 -40.80859375 11.91015625 -43.37109375 12.41015625 C-45.80859375 11.91015625 -45.80859375 11.91015625 -47.68359375 10.16015625 C-48.80859375 7.91015625 -48.80859375 7.91015625 -48.74609375 5.97265625 C-46.45987573 0.94297661 -43.86998139 -1.2824903 -38.80859375 -3.33984375 C-25.54339126 -8.27385199 -12.62118096 -6.11302135 0 0 Z " fill="#F89501" transform="translate(79.80859375,82.08984375)"/>
<path d="M0 0 C0.66 0.33 1.32 0.66 2 1 C-2.29 5.29 -6.58 9.58 -11 14 C-11 9.40845608 -8.09282279 7.18698368 -5 4 C-3.3719908 2.61973133 -1.71956118 1.26438322 0 0 Z " fill="#40321D" transform="translate(32,31)"/>
</svg>
